<svg width="191" height="34" viewBox="0 0 191 34" fill="none" xmlns="http://www.w3.org/2000/svg">
<path d="M25.1938 10.1748L29.5962 19.6734H20.7676L25.1938 10.1748ZM0.478516 33.0239H14.5947L17.1309 27.521H33.2329L35.769 33.0239H49.8853L32.6348 0.867694H17.729L0.478516 33.0239Z" fill="#433633"/>
<path d="M63.4033 25.3677V21.0611H80.271C81.3477 21.0611 82.2329 22.1377 82.2329 23.2144C82.2329 24.291 81.3477 25.3677 80.271 25.3677H63.4033ZM77.9263 8.50002C79.0029 8.50002 79.8882 9.57668 79.8882 10.6533C79.8882 11.73 79.0029 12.8306 77.9263 12.8306H63.4033V8.50002H77.9263ZM87.9272 16.3955C90.2241 14.9361 91.6597 12.5674 91.6597 9.48098C91.7314 3.88234 87.0181 0.843768 81.4434 0.867694H50.8662V33.0239H83.812C89.3389 33.0239 94.0762 30.0093 94.0044 24.3867C94.0044 20.3433 91.564 17.5679 87.9272 16.3955Z" fill="#433633"/>
<path d="M106.287 2.0005L106.287 2.00057H106.299H113V7.1054H109.263C108.186 7.1054 107.226 7.49887 106.459 8.26606C105.692 9.03325 105.299 9.99314 105.299 11.0703V22.9297C105.299 24.0069 105.692 24.9668 106.459 25.7339C107.226 26.5011 108.186 26.8946 109.263 26.8946H113V31.9994H106.299V31.9994L106.287 31.9995C102.327 32.047 98.953 28.6881 99.0005 24.7134H99.0006V24.7014V9.29858H99.0006L99.0005 9.28663C98.953 5.31194 102.327 1.95299 106.287 2.0005Z" stroke="#FFD400" stroke-width="2"/>
<path d="M134.713 2.0005L134.713 2.00057H134.701H128V7.1054H131.737C132.814 7.1054 133.774 7.49887 134.541 8.26606C135.308 9.03325 135.701 9.99314 135.701 11.0703V22.9297C135.701 24.0069 135.308 24.9668 134.541 25.7339C133.774 26.5011 132.814 26.8946 131.737 26.8946H128V31.9994H134.701V31.9994L134.713 31.9995C138.673 32.047 142.047 28.6881 142 24.7134H141.999V24.7014V9.29858H141.999L142 9.28663C142.047 5.31194 138.673 1.95299 134.713 2.0005Z" stroke="#FFD400" stroke-width="2"/>
<path d="M178.367 17.0796C178.367 20.3095 176.524 22.9653 173.271 22.9653H159.537V11.1938H173.271C176.524 11.1938 178.367 13.8256 178.367 17.0796ZM147 1.00143V33.1577H175.615C184.444 33.2773 191 25.8125 190.928 17.0796C191 8.29879 184.444 0.881798 175.615 1.00143H147Z" fill="#433633"/>
</svg>
