<svg width="95" height="69" viewBox="0 0 95 69" fill="none" xmlns="http://www.w3.org/2000/svg">
<path d="M25.1938 10.1748L29.5962 19.6734H20.7676L25.1938 10.1748ZM0.478516 33.0239H14.5947L17.1309 27.521H33.2329L35.769 33.0239H49.8853L32.6348 0.867694H17.729L0.478516 33.0239Z" fill="#433633"/>
<path d="M63.4033 25.3677V21.0611H80.271C81.3477 21.0611 82.2329 22.1377 82.2329 23.2144C82.2329 24.291 81.3477 25.3677 80.271 25.3677H63.4033ZM77.9263 8.50002C79.0029 8.50002 79.8882 9.57668 79.8882 10.6533C79.8882 11.73 79.0029 12.8306 77.9263 12.8306H63.4033V8.50002H77.9263ZM87.9272 16.3955C90.2241 14.9361 91.6597 12.5674 91.6597 9.48098C91.7314 3.88234 87.0181 0.843768 81.4434 0.867694H50.8662V33.0239H83.812C89.3389 33.0239 94.0762 30.0093 94.0044 24.3867C94.0044 20.3433 91.564 17.5679 87.9272 16.3955Z" fill="#433633"/>
<path d="M9.28658 37.0005L9.28658 37.0006H9.29858H16V42.1054H12.2634C11.1863 42.1054 10.2264 42.4989 9.45924 43.2661C8.69205 44.0332 8.29858 44.9931 8.29858 46.0703V57.9297C8.29858 59.0069 8.69205 59.9668 9.45924 60.7339C10.2264 61.5011 11.1863 61.8946 12.2634 61.8946H16V66.9994H9.29858V66.9994L9.28658 66.9995C5.32721 67.047 1.95299 63.6881 2.0005 59.7134H2.00057V59.7014V44.2986H2.00064L2.0005 44.2866C1.95299 40.3119 5.32721 36.953 9.28658 37.0005Z" stroke="#FFD400" stroke-width="2"/>
<path d="M37.7134 37.0005L37.7134 37.0006H37.7014H31V42.1054H34.7366C35.8137 42.1054 36.7736 42.4989 37.5408 43.2661C38.308 44.0332 38.7014 44.9931 38.7014 46.0703V57.9297C38.7014 59.0069 38.308 59.9668 37.5408 60.7339C36.7736 61.5011 35.8137 61.8946 34.7366 61.8946H31V66.9994H37.7014V66.9994L37.7134 66.9995C41.6728 67.047 45.047 63.6881 44.9995 59.7134H44.9994V59.7014V44.2986H44.9994L44.9995 44.2866C45.047 40.3119 41.6728 36.953 37.7134 37.0005Z" stroke="#FFD400" stroke-width="2"/>
<path d="M81.3667 52.0796C81.3667 55.3095 79.5244 57.9653 76.2705 57.9653H62.5371V46.1938H76.2705C79.5244 46.1938 81.3667 48.8256 81.3667 52.0796ZM50 36.0014V68.1577H78.6152C87.4438 68.2773 93.9995 60.8125 93.9277 52.0796C93.9995 43.2988 87.4438 35.8818 78.6152 36.0014H50Z" fill="#433633"/>
</svg>
